<svg width="43" height="34" viewBox="0 0 43 34" fill="none" xmlns="http://www.w3.org/2000/svg">
<g clip-path="url(#clip0_13_258)">
<path d="M4.9426 0.48395C4.9426 0.48395 4.9426 0.48395 4.94131 0.48395L3.66751 1.46205L4.30506 1.89365C4.32575 3.74132 6.35736 6.83014 10.3753 10.6813C16.4391 16.4912 25.2186 22.31 32.2691 25.4269C34.2619 26.308 36.1163 26.972 37.7328 27.3601C39.7619 27.8466 41.1986 27.8441 42.056 27.4291L42.5642 27.7726L42.9431 26.3871L42.9392 26.3833C43.388 24.6378 41.3706 21.3089 36.9272 17.0517C30.8647 11.2431 22.0839 5.423 15.0334 2.30736C13.0406 1.4263 11.1861 0.762314 9.57094 0.374137C7.28199 -0.17493 5.74309 -0.102147 4.94519 0.48395H4.9426Z" fill="url(#paint0_linear_13_258)"/>
<path d="M0.415115 6.20062L7.24059 10.8549C7.74235 11.381 8.28032 11.9237 8.86355 12.483C15.0347 18.395 23.9706 24.3185 31.1466 27.4904C31.5889 27.6857 32.0234 27.8683 32.4501 28.042L39.2433 32.6733L42.4168 28.0471L42.4142 28.0445C43.5108 26.4663 41.5271 22.8297 36.525 18.0362C30.3551 12.1242 21.4179 6.20189 14.2419 3.03007C12.2142 2.13369 10.3262 1.45693 8.68251 1.06237C5.8711 0.388169 4.17184 0.635887 3.56922 1.61016H3.56663L0.415115 6.20062Z" fill="url(#paint1_linear_13_258)"/>
<path d="M0.256064 6.54157L0.250891 6.54413L0.244425 6.58116C0.195283 6.73694 0.16166 6.90166 0.152608 7.08426L0.0349274 7.72781L0.22632 7.85678C0.628503 9.77341 2.67175 12.6618 6.33278 16.1719C12.5039 22.084 21.4399 28.0075 28.6158 31.1793C30.6448 32.0757 32.5316 32.7525 34.1765 33.147C35.7866 33.534 37.0293 33.6169 37.9139 33.4344L38.0484 33.5263L38.554 33.2275C38.6833 33.1662 38.8023 33.0972 38.9071 33.0181L38.9174 33.0117V33.0079C40.6451 31.6697 38.7648 27.8377 33.3567 22.656C27.1868 16.744 18.2496 10.8217 11.0736 7.64992C9.0459 6.75354 7.15784 6.07678 5.51419 5.68222C2.42346 4.94162 0.680231 5.31575 0.256064 6.54413V6.54157Z" fill="url(#paint2_linear_13_258)"/>
<path d="M2.61872 8.72891C4.16279 6.47774 12.9306 9.6802 22.2016 15.8808C31.4725 22.0815 37.7354 28.9333 36.1913 31.1845C34.6473 33.4356 25.8794 30.2332 16.6085 24.0326C7.33758 17.8319 1.07464 10.9801 2.61872 8.72891Z" fill="url(#paint3_linear_13_258)"/>
<path d="M4.60378 9.45416C5.99138 7.43155 13.8708 10.3084 22.2016 15.8821C30.5323 21.4545 36.1616 27.6117 34.774 29.6356C33.3864 31.6582 25.507 28.7813 17.1762 23.2076C8.84416 17.634 3.21618 11.4768 4.60378 9.45416Z" fill="url(#paint4_radial_13_258)"/>
<path d="M12.5505 11.0081C18.1151 13.4675 25.0453 18.0605 29.8314 22.6471C35.9676 28.5272 36.2521 32.1702 30.4664 30.7822C29.1926 30.477 27.7287 29.9522 26.1574 29.2576C20.5915 26.7983 13.66 22.204 8.8752 17.6187C2.7364 11.7373 2.4532 8.09426 8.23895 9.48352C9.51404 9.7887 10.9779 10.3135 12.5505 11.0094V11.0081ZM27.9705 31.6926C29.9633 32.5737 31.8178 33.2377 33.4342 33.6259C40.7667 35.3854 40.4072 30.7707 32.6286 23.3175C26.5661 17.5088 17.7853 11.6887 10.7348 8.5731C8.742 7.69204 6.88756 7.02805 5.27236 6.63987C-2.05746 4.88158 -1.69796 9.49502 6.07802 16.9483C12.1418 22.7582 20.9226 28.577 27.9718 31.6939L27.9705 31.6926Z" fill="url(#paint5_linear_13_258)"/>
<path d="M38.0471 33.5237H38.0497L38.5553 33.2262C38.6846 33.1649 38.8036 33.096 38.9083 33.0168L38.92 33.0104V33.0066C39.048 32.9083 39.1489 32.7921 39.2368 32.6682L39.2459 32.6746L42.4181 28.0484L42.4155 28.0458C42.4737 27.9616 42.5189 27.8683 42.5603 27.7726L42.5642 27.7751L42.5694 27.7547C42.6224 27.6257 42.6612 27.4866 42.6832 27.3372L42.9418 26.3897L42.9379 26.3859C43.388 24.6403 41.3693 21.3115 36.9259 17.0543C30.8634 11.2457 22.0826 5.42556 15.0321 2.30993C13.0393 1.42887 11.1861 0.764877 9.56965 0.3767C7.28069 -0.172367 5.74179 -0.0995834 4.94389 0.486513C4.94389 0.486513 4.94389 0.48779 4.9426 0.48779L4.26626 1.00621C4.05288 1.11347 3.88347 1.25138 3.74251 1.40843L3.6688 1.4659L3.68561 1.47739C3.64811 1.52336 3.60285 1.56294 3.57181 1.61274H3.56923L0.415126 6.20064L0.430644 6.21085C0.363398 6.31556 0.298738 6.42026 0.257356 6.54157L0.252183 6.54412L0.245717 6.58115C0.196576 6.73694 0.162953 6.90166 0.1539 7.08425L0.0362198 7.72781L0.0400994 7.73036C-0.297424 9.50525 1.72772 12.7818 6.07544 16.9483C12.1392 22.7582 20.92 28.577 27.9692 31.6939C29.962 32.575 31.8165 33.239 33.433 33.6272C35.7116 34.1737 37.2453 34.1034 38.0471 33.525V33.5237Z" fill="url(#paint6_linear_13_258)" style="mix-blend-mode:multiply"/>
</g>
<defs>
<linearGradient id="paint0_linear_13_258" x1="42.6844" y1="26.4889" x2="4.67685" y2="0.417713" gradientUnits="userSpaceOnUse">
<stop offset="0.16" stop-color="#FFDF00"/>
<stop offset="0.25" stop-color="#FED900"/>
<stop offset="0.36" stop-color="#FEC900"/>
<stop offset="0.47" stop-color="#FDB100"/>
<stop offset="0.55" stop-color="#C05700"/>
<stop offset="0.56" stop-color="#BA4D00"/>
<stop offset="0.61" stop-color="#BB5200"/>
<stop offset="0.65" stop-color="#ED9F00"/>
<stop offset="0.66" stop-color="#FEB900"/>
<stop offset="0.81" stop-color="#F09D00"/>
<stop offset="0.82" stop-color="#F4AC00"/>
<stop offset="0.85" stop-color="#FABC00"/>
<stop offset="0.87" stop-color="#FDC500"/>
<stop offset="0.9" stop-color="#FEC900"/>
<stop offset="1" stop-color="#FDB300"/>
</linearGradient>
<linearGradient id="paint1_linear_13_258" x1="42.3224" y1="28.278" x2="3.57249" y2="1.69749" gradientUnits="userSpaceOnUse">
<stop stop-color="#F2B000"/>
<stop offset="0.08" stop-color="#FFBC00"/>
<stop offset="0.15" stop-color="#FFC200"/>
<stop offset="0.41" stop-color="#FFE000"/>
<stop offset="0.43" stop-color="#FEDA00"/>
<stop offset="0.46" stop-color="#FCCA00"/>
<stop offset="0.49" stop-color="#F9AF00"/>
<stop offset="0.52" stop-color="#F69100"/>
<stop offset="0.56" stop-color="#DC5500"/>
<stop offset="0.61" stop-color="#BC5A00"/>
<stop offset="0.65" stop-color="#F2AB00"/>
<stop offset="0.67" stop-color="#FBB900"/>
<stop offset="0.69" stop-color="#FFBE00"/>
<stop offset="0.76" stop-color="#FFBF00"/>
<stop offset="0.77" stop-color="#FFC100"/>
<stop offset="0.79" stop-color="#FCBA00"/>
<stop offset="0.81" stop-color="#F4A900"/>
<stop offset="0.82" stop-color="#F0A100"/>
<stop offset="0.83" stop-color="#F6B400"/>
<stop offset="0.84" stop-color="#FAC100"/>
<stop offset="0.85" stop-color="#FDC800"/>
<stop offset="0.86" stop-color="#FECB00"/>
<stop offset="0.94" stop-color="#FECB00"/>
<stop offset="1" stop-color="#FEC900"/>
</linearGradient>
<linearGradient id="paint2_linear_13_258" x1="39.8614" y1="32.69" x2="0.252239" y2="5.52009" gradientUnits="userSpaceOnUse">
<stop offset="0.16" stop-color="#EA8800"/>
<stop offset="0.22" stop-color="#EB8D00"/>
<stop offset="0.29" stop-color="#F19D00"/>
<stop offset="0.37" stop-color="#FAB800"/>
<stop offset="0.42" stop-color="#F9A800"/>
<stop offset="0.47" stop-color="#F89600"/>
<stop offset="0.54" stop-color="#BA4B00"/>
<stop offset="0.61" stop-color="#BB5200"/>
<stop offset="0.71" stop-color="#FEBB00"/>
<stop offset="0.76" stop-color="#F9B300"/>
<stop offset="0.85" stop-color="#ED9E00"/>
<stop offset="0.95" stop-color="#D97D00"/>
<stop offset="1" stop-color="#CF6B00"/>
</linearGradient>
<linearGradient id="paint3_linear_13_258" x1="34.5377" y1="29.9701" x2="5.12606" y2="9.79527" gradientUnits="userSpaceOnUse">
<stop offset="0.16" stop-color="#E28500"/>
<stop offset="0.23" stop-color="#DE7F00"/>
<stop offset="0.31" stop-color="#D26F00"/>
<stop offset="0.41" stop-color="#C05400"/>
<stop offset="0.43" stop-color="#BA4B00"/>
<stop offset="0.61" stop-color="#BB5200"/>
<stop offset="1" stop-color="#D25C00"/>
</linearGradient>
<radialGradient id="paint4_radial_13_258" cx="0" cy="0" r="1" gradientTransform="matrix(-14.8701 -9.9447 2.41719 -3.52386 19.9117 19.2101)" gradientUnits="userSpaceOnUse">
<stop stop-color="#E29D00"/>
<stop offset="0.46" stop-color="#E19A00"/>
<stop offset="0.7" stop-color="#DE9200"/>
<stop offset="0.89" stop-color="#D98500"/>
<stop offset="1" stop-color="#D57A00"/>
</radialGradient>
<linearGradient id="paint5_linear_13_258" x1="18.1356" y1="38.1095" x2="20.1268" y2="7.90831" gradientUnits="userSpaceOnUse">
<stop stop-color="#EF9600"/>
<stop offset="0.44" stop-color="#EF9200"/>
<stop offset="1" stop-color="#D16500"/>
</linearGradient>
<linearGradient id="paint6_linear_13_258" x1="10.666" y1="21.7922" x2="-14.1828" y2="32.9845" gradientUnits="userSpaceOnUse">
<stop stop-color="white"/>
<stop offset="0.1" stop-color="#FDFAF9"/>
<stop offset="0.23" stop-color="#F8EEEB"/>
<stop offset="0.36" stop-color="#F0DBD2"/>
<stop offset="0.5" stop-color="#E5BFB0"/>
<stop offset="0.65" stop-color="#D79B85"/>
<stop offset="0.8" stop-color="#C5704F"/>
<stop offset="0.96" stop-color="#B13D11"/>
<stop offset="1" stop-color="#AC2F00"/>
</linearGradient>
<clipPath id="clip0_13_258">
<rect width="43" height="34" fill="white"/>
</clipPath>
</defs>
</svg>