<svg width="35" height="21" viewBox="0 0 35 21" fill="none" xmlns="http://www.w3.org/2000/svg">
<g clip-path="url(#clip0_13_247)">
<path d="M18.3574 15.2746C27.6378 13.5953 34.5611 8.95143 33.8227 4.90045C33.083 0.850707 24.9614 -1.07166 15.681 0.607649C6.40308 2.28573 -0.520236 6.93085 0.218202 10.9818C0.957873 15.0328 9.07946 16.9539 18.3574 15.2759V15.2746Z" fill="url(#paint0_linear_13_247)"/>
<path d="M32.6306 9.86229C30.0738 12.6157 24.8394 15.1016 18.5349 16.2432C12.2317 17.3836 6.45363 16.8901 3.08813 15.2084L0.772955 15.627L0.0616383 11.7282C0.0591727 11.7147 0.0554744 11.7024 0.0530088 11.6889C0.0505432 11.6754 0.0493105 11.6619 0.0468449 11.6484L0.0382154 11.603H0.0394482C-0.597902 7.50414 6.40801 2.83447 15.7784 1.1392C25.1463 -0.556073 33.3518 1.35893 34.2073 5.41482H34.2098L34.9458 9.44369L32.6306 9.86229Z" fill="url(#paint1_linear_13_247)"/>
<path d="M19.2191 19.9934C28.6561 18.2859 35.6978 13.5634 34.9458 9.44369C34.1938 5.3252 25.9341 3.36968 16.4971 5.07723C7.06139 6.78478 0.0209563 11.5085 0.772955 15.6269C1.52495 19.7467 9.78338 21.701 19.2191 19.9934Z" fill="url(#paint2_linear_13_247)"/>
<path d="M32.495 10.5558C31.8811 7.18863 24.8825 5.63576 16.8645 7.08552C8.84647 8.5365 2.84403 12.4426 3.45919 15.8098C4.07312 19.1771 11.0716 20.7299 19.0897 19.2802C27.1077 17.8292 33.1101 13.9231 32.495 10.5558Z" fill="url(#paint3_linear_13_247)"/>
<path d="M31.1525 10.3054C30.5866 7.20215 24.1897 5.76099 16.8657 7.08676C9.54176 8.41254 4.06326 12.0019 4.62911 15.1052C5.19496 18.2085 11.5919 19.6497 18.9159 18.3239C26.2398 16.9981 31.7183 13.4087 31.1525 10.3054Z" fill="url(#paint4_radial_13_247)"/>
<path d="M16.8965 7.26967C24.2218 5.94389 30.6335 7.46117 31.2166 10.6578C31.7997 13.8556 26.3348 17.5211 19.0095 18.8456C11.6868 20.1702 5.27632 18.6541 4.69198 15.4563C4.10887 12.2597 9.57381 8.59298 16.8965 7.26844V7.26967ZM19.2919 20.3924C28.5723 18.7131 35.4968 14.0692 34.7571 10.0182C34.0175 5.96844 25.8959 4.04607 16.6155 5.72539C7.3363 7.40347 0.412982 12.0486 1.15265 16.0983C1.89232 20.1493 10.0139 22.0704 19.2919 20.3924Z" fill="url(#paint5_linear_13_247)"/>
<path d="M34.6955 11.4925C34.9642 10.8038 35.0678 10.1164 34.9458 9.44369L34.2098 5.41359H34.2073C34.0865 4.84399 33.8067 4.32105 33.4134 3.83862C31.5507 0.532777 24.1034 -0.91698 15.681 0.607659C7.2611 2.13107 0.800076 6.09734 0.226831 9.8451C0.0271202 10.4356 -0.0493124 11.0248 0.0406809 11.603H0.0394481L0.0480776 11.6484C0.0505431 11.6619 0.0517759 11.6754 0.0542415 11.6889C0.0567071 11.7024 0.0604054 11.7147 0.062871 11.7282L0.772955 15.6269C0.896234 16.2997 1.23648 16.9073 1.73083 17.4573C3.85862 20.5556 11.1234 21.8704 19.2919 20.3924C27.4615 18.9144 33.7993 15.1384 34.6955 11.4913V11.4925Z" fill="url(#paint6_linear_13_247)" style="mix-blend-mode:multiply"/>
</g>
<defs>
<linearGradient id="paint0_linear_13_247" x1="0.393041" y1="6.83443" x2="33.6436" y2="9.06402" gradientUnits="userSpaceOnUse">
<stop offset="0.16" stop-color="#FFDF00"/>
<stop offset="0.25" stop-color="#FED900"/>
<stop offset="0.36" stop-color="#FEC900"/>
<stop offset="0.47" stop-color="#FDB100"/>
<stop offset="0.55" stop-color="#C05700"/>
<stop offset="0.56" stop-color="#BA4D00"/>
<stop offset="0.61" stop-color="#BB5200"/>
<stop offset="0.65" stop-color="#ED9F00"/>
<stop offset="0.66" stop-color="#FEB900"/>
<stop offset="0.81" stop-color="#F09D00"/>
<stop offset="0.82" stop-color="#F4AC00"/>
<stop offset="0.85" stop-color="#FABC00"/>
<stop offset="0.87" stop-color="#FDC500"/>
<stop offset="0.9" stop-color="#FEC900"/>
<stop offset="1" stop-color="#FDB300"/>
</linearGradient>
<linearGradient id="paint1_linear_13_247" x1="0.0854195" y1="11.8125" x2="34.2525" y2="5.57686" gradientUnits="userSpaceOnUse">
<stop stop-color="#F2B000"/>
<stop offset="0.08" stop-color="#FFBC00"/>
<stop offset="0.15" stop-color="#FFC200"/>
<stop offset="0.41" stop-color="#FFE000"/>
<stop offset="0.43" stop-color="#FEDA00"/>
<stop offset="0.46" stop-color="#FCCA00"/>
<stop offset="0.49" stop-color="#F9AF00"/>
<stop offset="0.52" stop-color="#F69100"/>
<stop offset="0.56" stop-color="#DC5500"/>
<stop offset="0.61" stop-color="#BC5A00"/>
<stop offset="0.65" stop-color="#F2AB00"/>
<stop offset="0.67" stop-color="#FBB900"/>
<stop offset="0.69" stop-color="#FFBE00"/>
<stop offset="0.76" stop-color="#FFBF00"/>
<stop offset="0.77" stop-color="#FFC100"/>
<stop offset="0.79" stop-color="#FCBA00"/>
<stop offset="0.81" stop-color="#F4A900"/>
<stop offset="0.82" stop-color="#F0A100"/>
<stop offset="0.83" stop-color="#F6B400"/>
<stop offset="0.84" stop-color="#FAC100"/>
<stop offset="0.85" stop-color="#FDC800"/>
<stop offset="0.86" stop-color="#FECB00"/>
<stop offset="0.94" stop-color="#FECB00"/>
<stop offset="1" stop-color="#FEC900"/>
</linearGradient>
<linearGradient id="paint2_linear_13_247" x1="1.10948" y1="10.8844" x2="34.6026" y2="14.2179" gradientUnits="userSpaceOnUse">
<stop offset="0.16" stop-color="#EA8800"/>
<stop offset="0.22" stop-color="#EB8D00"/>
<stop offset="0.29" stop-color="#F19D00"/>
<stop offset="0.37" stop-color="#FAB800"/>
<stop offset="0.42" stop-color="#F9A800"/>
<stop offset="0.47" stop-color="#F89600"/>
<stop offset="0.54" stop-color="#BA4B00"/>
<stop offset="0.61" stop-color="#BB5200"/>
<stop offset="0.71" stop-color="#FEBB00"/>
<stop offset="1" stop-color="#CF7100"/>
</linearGradient>
<linearGradient id="paint3_linear_13_247" x1="3.04883" y1="16.5889" x2="32.0413" y2="11.2976" gradientUnits="userSpaceOnUse">
<stop offset="0.16" stop-color="#E28500"/>
<stop offset="0.23" stop-color="#DE7F00"/>
<stop offset="0.31" stop-color="#D26F00"/>
<stop offset="0.41" stop-color="#C05400"/>
<stop offset="0.43" stop-color="#BA4B00"/>
<stop offset="0.61" stop-color="#BB5200"/>
<stop offset="1" stop-color="#D25C00"/>
</linearGradient>
<radialGradient id="paint4_radial_13_247" cx="0" cy="0" r="1" gradientTransform="matrix(13.2834 -2.40379 -1.02273 -5.60388 18.4024 11.6809)" gradientUnits="userSpaceOnUse">
<stop stop-color="#E18B00"/>
<stop offset="1" stop-color="#DC7E00"/>
</radialGradient>
<linearGradient id="paint5_linear_13_247" x1="17.168" y1="24.7606" x2="18.4927" y2="4.8366" gradientUnits="userSpaceOnUse">
<stop stop-color="#EF9600"/>
<stop offset="0.41" stop-color="#FAB400"/>
<stop offset="0.53" stop-color="#F8AE00"/>
<stop offset="0.68" stop-color="#F29E00"/>
<stop offset="0.77" stop-color="#EF9200"/>
<stop offset="1" stop-color="#E36D00"/>
</linearGradient>
<linearGradient id="paint6_linear_13_247" x1="10.4488" y1="-3.50036" x2="4.24544" y2="-15.9692" gradientUnits="userSpaceOnUse">
<stop stop-color="white"/>
<stop offset="0.1" stop-color="#FDFAF9"/>
<stop offset="0.23" stop-color="#F8EEEB"/>
<stop offset="0.36" stop-color="#F0DBD2"/>
<stop offset="0.5" stop-color="#E5BFB0"/>
<stop offset="0.65" stop-color="#D79B85"/>
<stop offset="0.8" stop-color="#C5704F"/>
<stop offset="0.96" stop-color="#B13D11"/>
<stop offset="1" stop-color="#AC2F00"/>
</linearGradient>
<clipPath id="clip0_13_247">
<rect width="35" height="21" fill="white"/>
</clipPath>
</defs>
</svg>