<svg width="32" height="32" viewBox="0 0 32 32" fill="none" xmlns="http://www.w3.org/2000/svg">
<path d="M30 3.4141L28.5859 2L2 28.5859L3.4141 30L5.4141 28H26C26.5302 27.9993 27.0385 27.7883 27.4134 27.4134C27.7883 27.0385 27.9993 26.5302 28 26V5.4141L30 3.4141ZM26 26H7.4141L15.207 18.207L17.5858 20.5857C17.9609 20.9608 18.4696 21.1715 19 21.1715C19.5304 21.1715 20.0391 20.9608 20.4142 20.5857L22 19L26 22.9973V26ZM26 20.1682L23.4142 17.5823C23.0391 17.2072 22.5304 16.9965 22 16.9965C21.4696 16.9965 20.9609 17.2072 20.5858 17.5823L19 19.1682L16.623 16.7911L26 7.4141V20.1682Z" fill="black"/>
<path d="M6 22V19L11 14.0034L12.3733 15.3767L13.7892 13.9607L12.4142 12.5857C12.0391 12.2106 11.5304 11.9999 11 11.9999C10.4696 11.9999 9.96087 12.2106 9.5858 12.5857L6 16.1716V6H22V4H6C5.46973 4.00053 4.96133 4.21141 4.58637 4.58637C4.21141 4.96133 4.00053 5.46973 4 6V22H6Z" fill="black"/>
</svg>
