<svg width="200" height="200" viewBox="0 0 200 200" fill="none" xmlns="http://www.w3.org/2000/svg">
<circle cx="100" cy="100" r="84" fill="white"/>
<circle cx="100" cy="100" r="79" stroke="#E00000" stroke-width="4"/>
<path d="M128 74.8282L125.172 72L72 125.172L74.8282 128L78.8282 124H120C121.06 123.999 122.077 123.577 122.827 122.827C123.577 122.077 123.999 121.06 124 120V78.8282L128 74.8282ZM120 120H82.8282L98.414 104.414L103.172 109.171C103.922 109.922 104.939 110.343 106 110.343C107.061 110.343 108.078 109.922 108.828 109.171L112 106L120 113.995V120ZM120 108.336L114.828 103.165C114.078 102.414 113.061 101.993 112 101.993C110.939 101.993 109.922 102.414 109.172 103.165L106 106.336L101.246 101.582L120 82.8282V108.336Z" fill="#FF0000"/>
<path d="M80 112V106L90 96.0068L92.7466 98.7534L95.5784 95.9214L92.8284 93.1714C92.0782 92.4212 91.0608 91.9998 90 91.9998C88.9392 91.9998 87.9217 92.4212 87.1716 93.1714L80 100.343V80H112V76H80C78.9395 76.0011 77.9227 76.4228 77.1727 77.1727C76.4228 77.9227 76.0011 78.9395 76 80V112H80Z" fill="#FF0000"/>
</svg>
